# Blender v2.90.1 OBJ File: 'pgr_scene.blend'
# www.blender.org
mtllib scene_floor.mtl
o Floor_Floor
v -3.499999 -0.999999 0.000002
v -3.499999 0.000001 0.000002
v -7.499999 -0.999999 0.000003
v -7.499999 0.000001 0.000003
v -3.380739 0.000001 0.905869
v -3.031087 0.000001 1.750002
v -2.474872 0.000001 2.474875
v -7.499997 0.000001 7.186895
v -1.749998 0.000001 3.031090
v -1.699996 0.000001 7.186893
v -0.905865 0.000001 3.380742
v 0.000002 0.000001 3.500001
v 2.100004 0.000001 7.186892
v 0.905869 0.000001 3.380741
v 1.750002 0.000001 3.031089
v 2.474875 0.000001 2.474874
v 15.500004 0.000001 7.186887
v 3.031090 0.000001 1.750000
v 15.500002 0.000001 -0.000004
v 3.380741 0.000001 0.905867
v 3.500001 0.000001 -0.000000
v 2.100005 0.000001 12.186892
v -1.699995 0.000001 12.186893
v 15.500004 -0.999999 6.186887
v 2.100003 -0.999999 6.186892
v 15.500002 -0.999999 -0.000004
v -7.499997 -0.999999 6.186895
v -1.699997 -0.999999 6.186893
v -1.699995 -0.999999 12.186893
v 2.100005 -0.999999 12.186892
v 3.500001 -0.999999 -0.000000
v 3.380741 -0.999999 -0.905867
v -3.380739 -0.999999 -0.905865
v -3.031088 -0.999999 -1.749998
v 3.031089 -0.999999 -1.750000
v -2.474873 -0.999999 -2.474872
v 2.474874 -0.999999 -2.474873
v -1.750000 -0.999999 -3.031087
v 1.750000 -0.999999 -3.031088
v -0.905867 -0.999999 -3.380739
v 0.905867 -0.999999 -3.380740
v -0.000000 -0.999999 -3.499999
v 3.380741 0.150001 0.905867
v 3.500001 0.150001 -0.000000
v 3.380741 0.150001 -0.905867
v 3.031090 0.150001 1.750000
v 2.474875 0.150001 2.474874
v 1.750002 0.150001 3.031089
v 0.905869 0.150001 3.380741
v 0.000002 0.150001 3.500001
v -0.905865 0.150001 3.380742
v -1.749998 0.150001 3.031090
v -2.474872 0.150001 2.474875
v -3.031087 0.150001 1.750002
v -3.380739 0.150001 0.905869
v -3.499999 0.150001 0.000002
v -3.380739 0.150001 -0.905865
v -3.031088 0.150001 -1.749998
v -2.474873 0.150001 -2.474872
v -1.750000 0.150001 -3.031087
v -0.905867 0.150001 -3.380739
v -0.000000 0.150001 -3.499999
v 0.905867 0.150001 -3.380740
v 1.750000 0.150001 -3.031088
v 2.474874 0.150001 -2.474873
v 3.031089 0.150001 -1.750000
v 15.500008 0.000001 18.186888
v -7.499993 0.000001 18.186895
v 15.500009 -0.999999 19.186888
v -7.499993 -0.999999 19.186895
v -7.499991 -0.999999 25.186895
v 15.500010 -0.999999 25.186888
v -7.499991 0.000001 25.186895
v 15.500010 0.000001 25.186888
v 15.500008 -4.999999 18.186888
v 15.500008 -5.999999 18.186888
v -7.499993 -4.999999 18.186895
v -7.499993 -5.999999 18.186895
v -7.499997 -4.999999 7.186895
v -7.499997 -5.999999 7.186895
v 15.500004 -4.999999 7.186887
v 15.500004 -5.999999 7.186887
v -3.499999 0.000001 0.000002
v -3.380739 0.000001 0.905869
v -3.031087 0.000001 1.750002
v -2.474872 0.000001 2.474875
v -1.749998 0.000001 3.031090
v -0.905865 0.000001 3.380742
v 0.000002 0.000001 3.500001
v 0.905869 0.000001 3.380741
v 1.750002 0.000001 3.031089
v 2.474875 0.000001 2.474874
v 3.031090 0.000001 1.750000
v 3.380741 0.000001 0.905867
v 3.500001 0.000001 -0.000000
v 3.380741 0.150001 0.905867
v 3.500001 0.150001 -0.000000
v 3.031090 0.150001 1.750000
v 2.474875 0.150001 2.474874
v 1.750002 0.150001 3.031089
v 0.905869 0.150001 3.380741
v 0.000002 0.150001 3.500001
v -0.905865 0.150001 3.380742
v -1.749998 0.150001 3.031090
v -2.474872 0.150001 2.474875
v -3.031087 0.150001 1.750002
v -3.380739 0.150001 0.905869
v -3.499999 0.150001 0.000002
vt 0.694497 0.711260
vt 0.694497 0.629246
vt 0.673333 0.711260
vt 0.673333 0.629246
vt 4.411644 9.616190
vt 7.559055 9.616190
vt 4.317804 8.901445
vt 4.042681 8.235409
vt 3.605019 7.663472
vt 7.559055 3.945605
vt 3.034650 7.224607
vt 2.995308 3.945606
vt 2.370444 6.948726
vt 1.657659 6.854628
vt 0.005268 3.945605
vt 0.944876 6.948726
vt 0.280667 7.224607
vt -0.289701 7.663471
vt -10.538561 3.945604
vt -0.727361 8.235411
vt -10.538561 9.616190
vt -1.002485 8.901445
vt -1.096325 9.616190
vt 0.005268 0.000515
vt 2.995310 0.000517
vt 0.847090 0.504242
vt 0.825926 0.504242
vt 0.847090 0.787062
vt 0.825926 0.787062
vt 0.716296 0.501871
vt 0.695132 0.519225
vt 0.716296 0.626591
vt 0.695132 0.626591
vt 0.651534 0.624251
vt 0.672698 0.624251
vt 0.651534 0.501836
vt 0.672698 0.501836
vt 0.993915 0.003596
vt -1.980827 0.003594
vt 0.993917 0.993042
vt -1.980827 0.993043
vt 0.995125 0.992846
vt 5.837307 0.992845
vt 0.995125 0.003401
vt 6.805742 0.003399
vt -6.849348 0.004658
vt -6.038033 0.994104
vt -1.981461 0.004654
vt -1.981461 0.994103
vt 0.804127 0.503691
vt 0.804127 0.749732
vt 0.825291 0.503691
vt 0.825291 0.749732
vt 0.738730 0.502233
vt 0.738730 0.651107
vt 0.759894 0.522948
vt 0.759894 0.651107
vt 0.282075 0.263070
vt 0.262904 0.260553
vt 0.282075 0.405778
vt 0.262904 0.408295
vt 0.131964 0.370304
vt 0.131964 0.492718
vt 0.262904 0.492718
vt 0.299941 0.398398
vt 0.299941 0.270450
vt 0.315282 0.386658
vt 0.315282 0.282189
vt 0.327054 0.371359
vt 0.327054 0.297488
vt 0.334454 0.353543
vt 0.334454 0.315305
vt 0.336978 0.334424
vt 0.004980 0.370304
vt 0.004980 0.290101
vt 0.131964 0.290101
vt 0.131964 0.007282
vt 0.262904 0.007282
vt 0.625878 0.608594
vt 0.629053 0.625747
vt 0.629053 0.608594
vt 0.395286 0.685741
vt 0.395286 0.667459
vt 0.392111 0.685741
vt 0.370947 0.667459
vt 0.395286 0.651387
vt 0.370947 0.651387
vt 0.672651 0.716306
vt 0.672651 0.701273
vt 0.648312 0.716306
vt 0.648312 0.701273
vt 0.672651 0.683625
vt 0.648312 0.683625
vt 0.672651 0.664567
vt 0.648312 0.664567
vt 0.672651 0.645397
vt 0.648312 0.645397
vt 0.672651 0.627420
vt 0.648312 0.627420
vt 0.629053 0.698425
vt 0.629053 0.682217
vt 0.604714 0.698425
vt 0.604714 0.682217
vt 0.629053 0.663857
vt 0.604714 0.663857
vt 0.629053 0.644596
vt 0.604714 0.644596
vt 0.604714 0.625747
vt 0.604714 0.608594
vt 0.370947 0.685741
vt -0.860399 0.195776
vt -0.907702 0.563807
vt 1.892947 0.188294
vt 1.942771 0.556062
vt -0.857877 0.931575
vt 1.895469 0.924093
vt -0.714320 1.274016
vt 1.754263 1.267309
vt -0.486814 1.567793
vt 1.528775 1.562317
vt -0.190863 1.792888
vt 1.234373 1.789015
vt 0.153364 1.933957
vt 0.891120 1.931952
vt 0.522408 1.981390
vt 1.749389 -0.154147
vt -0.719193 -0.147440
vt 1.521883 -0.447926
vt -0.493706 -0.442449
vt 1.225932 -0.673020
vt -0.199304 -0.669146
vt 0.881706 -0.814090
vt 0.143949 -0.812085
vt 0.512661 -0.861521
vt 0.522187 0.992718
vt 0.543351 0.992718
vt 0.522187 0.507282
vt 0.543351 0.507282
vt 0.241693 0.507282
vt 0.241693 0.992718
vt 0.368677 0.507282
vt 0.368677 0.992718
vt 0.738095 0.502175
vt 0.716931 0.522890
vt 0.738095 0.647177
vt 0.716931 0.647177
vt 0.847725 0.505777
vt 0.847725 0.890900
vt 0.868889 0.505777
vt 0.868889 0.890900
vt 0.002655 -21.779602
vt 0.002657 0.998507
vt 6.954195 -21.779602
vt 6.954200 0.998507
vt 0.650899 0.623299
vt 0.650899 0.501822
vt 0.629735 0.605945
vt 0.629735 0.501822
vt 0.586949 0.890900
vt 0.586949 0.505777
vt 0.565785 0.890900
vt 0.565785 0.505777
vt 0.543986 0.507074
vt 0.543986 0.978654
vt 0.565150 0.507074
vt 0.565150 0.978654
vt 0.803492 0.503418
vt 0.782328 0.503418
vt 0.803492 0.731279
vt 0.782328 0.731279
vt 0.611111 0.007282
vt 0.611111 0.492718
vt 0.843915 0.007282
vt 0.843915 0.492718
vt 0.760529 0.693755
vt 0.781693 0.693755
vt 0.760529 0.502863
vt 0.781693 0.502863
vt 8.038229 1.002177
vt 8.038228 -15.754436
vt 0.002148 1.002180
vt 0.002146 -15.754434
vt 5.645593 1.195726
vt 7.537176 1.195726
vt 5.645593 0.775429
vt 7.537176 0.775429
vt 7.359859 -0.090384
vt 5.148814 -0.090384
vt 7.359859 0.329912
vt 5.148814 0.329912
vt 2.682716 -0.090384
vt 2.682716 0.329912
vt 0.129625 -0.090384
vt 0.129625 0.329912
vt -2.336481 -0.090384
vt -2.336481 0.329912
vt -4.547525 -0.090384
vt -4.547525 0.329912
vt -6.352833 -0.090384
vt -6.352833 0.329912
vt 7.405636 0.342523
vt 5.994607 0.342523
vt 7.405636 0.762819
vt 5.994607 0.762819
vt 4.080953 0.342523
vt 4.080953 0.762819
vt 1.795091 0.342523
vt 1.795091 0.762819
vt -0.707196 0.342523
vt -0.707196 0.762819
vt -3.255395 0.342523
vt -3.255395 0.762819
vn -0.0000 0.0000 -1.0000
vn 0.0000 1.0000 0.0000
vn 0.0000 -0.7071 0.7071
vn 1.0000 0.0000 -0.0000
vn 0.0000 0.0000 1.0000
vn -1.0000 0.0000 0.0000
vn 0.0000 -1.0000 0.0000
vn 0.9914 0.0000 -0.1305
vn 0.9659 0.0000 -0.2588
vn -0.9914 0.0000 -0.1305
vn -0.9659 0.0000 -0.2588
vn -0.8660 0.0000 -0.5000
vn -0.7071 0.0000 -0.7071
vn -0.5000 0.0000 -0.8660
vn -0.2588 0.0000 -0.9659
vn 0.2588 0.0000 -0.9659
vn 0.5000 0.0000 -0.8660
vn 0.7071 0.0000 -0.7071
vn 0.8660 0.0000 -0.5000
vn -0.0000 -0.7071 -0.7071
vn 0.9659 0.0000 0.2588
vn 0.9914 0.0000 0.1305
vn 0.8660 0.0000 0.5000
vn 0.7071 0.0000 0.7071
vn 0.5000 0.0000 0.8660
vn 0.2588 0.0000 0.9659
vn -0.2588 0.0000 0.9659
vn -0.5000 0.0000 0.8660
vn -0.7071 0.0000 0.7071
vn -0.8660 0.0000 0.5000
vn -0.9659 0.0000 0.2588
vn -0.9914 0.0000 0.1305
g Floor_Floor_floor
usemtl floor
s 1
f 1/1/1 3/2/1 2/3/1
f 3/2/1 4/4/1 2/3/1
f 2/5/2 4/6/2 5/7/2
f 4/6/2 6/8/2 5/7/2
f 4/6/2 7/9/2 6/8/2
f 4/6/2 8/10/2 7/9/2
f 8/10/2 9/11/2 7/9/2
f 8/10/2 10/12/2 9/11/2
f 10/12/2 11/13/2 9/11/2
f 10/12/2 12/14/2 11/13/2
f 10/12/2 13/15/2 12/14/2
f 13/15/2 14/16/2 12/14/2
f 13/15/2 15/17/2 14/16/2
f 15/17/2 13/15/2 16/18/2
f 13/15/2 17/19/2 16/18/2
f 17/19/2 18/20/2 16/18/2
f 17/19/2 19/21/2 18/20/2
f 19/21/2 20/22/2 18/20/2
f 19/21/2 21/23/2 20/22/2
f 22/24/2 13/15/2 23/25/2
f 13/15/2 10/12/2 23/25/2
f 24/26/3 17/27/3 25/28/3
f 17/27/3 13/29/3 25/28/3
f 17/30/4 24/31/4 19/32/4
f 24/31/4 26/33/4 19/32/4
f 8/34/3 27/35/3 10/36/3
f 27/35/3 28/37/3 10/36/3
f 29/38/5 30/39/5 23/40/5
f 30/39/5 22/41/5 23/40/5
f 23/42/6 10/43/6 29/44/6
f 10/43/6 28/45/6 29/44/6
f 25/46/4 13/47/4 30/48/4
f 13/47/4 22/49/4 30/48/4
f 21/50/1 19/51/1 31/52/1
f 19/51/1 26/53/1 31/52/1
f 8/54/6 4/55/6 27/56/6
f 4/55/6 3/57/6 27/56/6
f 32/58/7 31/59/7 33/60/7
f 31/59/7 1/61/7 33/60/7
f 31/59/7 28/62/7 1/61/7
f 28/62/7 27/63/7 1/61/7
f 27/63/7 3/64/7 1/61/7
f 33/60/7 34/65/7 32/58/7
f 34/65/7 35/66/7 32/58/7
f 34/65/7 36/67/7 35/66/7
f 36/67/7 37/68/7 35/66/7
f 36/67/7 38/69/7 37/68/7
f 38/69/7 39/70/7 37/68/7
f 38/69/7 40/71/7 39/70/7
f 40/71/7 41/72/7 39/70/7
f 40/71/7 42/73/7 41/72/7
f 29/74/7 28/62/7 30/75/7
f 28/62/7 25/76/7 30/75/7
f 28/62/7 31/59/7 25/76/7
f 31/59/7 24/77/7 25/76/7
f 31/59/7 26/78/7 24/77/7
f 21/79/8 45/80/9 44/81/8
f 56/82/10 57/83/11 2/84/10
f 57/83/11 33/85/11 2/84/10
f 57/83/11 58/86/12 33/85/11
f 58/86/12 34/87/12 33/85/11
f 58/88/12 59/89/13 34/90/12
f 59/89/13 36/91/13 34/90/12
f 59/89/13 60/92/14 36/91/13
f 60/92/14 38/93/14 36/91/13
f 60/92/14 61/94/15 38/93/14
f 61/94/15 40/95/15 38/93/14
f 61/94/15 62/96/1 40/95/15
f 62/96/1 42/97/1 40/95/15
f 62/96/1 63/98/16 42/97/1
f 63/98/16 41/99/16 42/97/1
f 63/100/16 64/101/17 41/102/16
f 64/101/17 39/103/17 41/102/16
f 64/101/17 65/104/18 39/103/17
f 65/104/18 37/105/18 39/103/17
f 65/104/18 66/106/19 37/105/18
f 66/106/19 35/107/19 37/105/18
f 66/106/19 45/80/9 35/107/19
f 45/80/9 32/108/9 35/107/19
f 45/80/9 21/79/8 32/108/9
f 21/79/8 31/109/8 32/108/9
f 2/84/10 33/85/11 1/110/10
g Floor_Floor_brick_floor
usemtl brick_floor
f 43/111/2 44/112/2 55/113/2
f 44/112/2 56/114/2 55/113/2
f 44/112/2 45/115/2 56/114/2
f 45/115/2 57/116/2 56/114/2
f 45/115/2 66/117/2 57/116/2
f 66/117/2 58/118/2 57/116/2
f 66/117/2 65/119/2 58/118/2
f 65/119/2 59/120/2 58/118/2
f 65/119/2 64/121/2 59/120/2
f 64/121/2 60/122/2 59/120/2
f 64/121/2 63/123/2 60/122/2
f 63/123/2 61/124/2 60/122/2
f 63/123/2 62/125/2 61/124/2
f 55/113/2 54/126/2 43/111/2
f 54/126/2 46/127/2 43/111/2
f 54/126/2 53/128/2 46/127/2
f 53/128/2 47/129/2 46/127/2
f 53/128/2 52/130/2 47/129/2
f 52/130/2 48/131/2 47/129/2
f 52/130/2 51/132/2 48/131/2
f 51/132/2 49/133/2 48/131/2
f 51/132/2 50/134/2 49/133/2
g Floor_Floor_floor
usemtl floor
f 67/135/20 69/136/20 68/137/20
f 69/136/20 70/138/20 68/137/20
f 70/139/7 69/140/7 71/141/7
f 69/140/7 72/142/7 71/141/7
f 68/143/6 70/144/6 73/145/6
f 70/144/6 71/146/6 73/145/6
f 74/147/5 73/148/5 72/149/5
f 73/148/5 71/150/5 72/149/5
f 73/151/2 74/152/2 68/153/2
f 74/152/2 67/154/2 68/153/2
f 67/155/4 74/156/4 69/157/4
f 74/156/4 72/158/4 69/157/4
f 75/159/5 77/160/5 76/161/5
f 77/160/5 78/162/5 76/161/5
f 79/163/1 81/164/1 80/165/1
f 81/164/1 82/166/1 80/165/1
f 78/167/6 77/168/6 80/169/6
f 77/168/6 79/170/6 80/169/6
f 76/171/7 78/172/7 82/173/7
f 78/172/7 80/174/7 82/173/7
f 75/175/4 76/176/4 81/177/4
f 76/176/4 82/178/4 81/177/4
f 77/179/2 75/180/2 79/181/2
f 75/180/2 81/182/2 79/181/2
g Floor_Floor_normal_wall
usemtl normal_wall
f 94/183/21 95/184/22 96/185/21
f 95/184/22 97/186/22 96/185/21
f 96/187/21 98/188/23 94/189/21
f 98/188/23 93/190/23 94/189/21
f 98/188/23 99/191/24 93/190/23
f 99/191/24 92/192/24 93/190/23
f 99/191/24 100/193/25 92/192/24
f 100/193/25 91/194/25 92/192/24
f 100/193/25 101/195/26 91/194/25
f 101/195/26 90/196/26 91/194/25
f 101/195/26 102/197/5 90/196/26
f 102/197/5 89/198/5 90/196/26
f 102/197/5 103/199/27 89/198/5
f 103/199/27 88/200/27 89/198/5
f 103/201/27 104/202/28 88/203/27
f 104/202/28 87/204/28 88/203/27
f 104/202/28 105/205/29 87/204/28
f 105/205/29 86/206/29 87/204/28
f 105/205/29 106/207/30 86/206/29
f 106/207/30 85/208/30 86/206/29
f 106/207/30 107/209/31 85/208/30
f 107/209/31 84/210/31 85/208/30
f 107/209/31 108/211/32 84/210/31
f 108/211/32 83/212/32 84/210/31
